<svg width="22" height="24" viewBox="0 0 22 24" fill="none" xmlns="http://www.w3.org/2000/svg">
<path d="M17.1111 2.18182H20.7778C21.4528 2.18182 22 2.67024 22 3.27273V22.9091C22 23.5116 21.4528 24 20.7778 24H1.22222C0.547213 24 0 23.5116 0 22.9091V3.27273C0 2.67024 0.547213 2.18182 1.22222 2.18182H4.88889V0H7.33333V2.18182H14.6667V0H17.1111V2.18182ZM17.1111 4.36364V6.54545H14.6667V4.36364H7.33333V6.54545H4.88889V4.36364H2.44444V21.8182H19.5556V4.36364H17.1111ZM4.88889 8.72727H17.1111V10.9091H4.88889V8.72727ZM4.88889 13.0909H17.1111V15.2727H4.88889V13.0909Z" fill="#80B895"/>
</svg>
